<svg width="1920" height="106" viewBox="0 0 1920 106" fill="none" xmlns="http://www.w3.org/2000/svg">
<path d="M1920 465.652V0C1872.64 24.5193 1840.27 73.8916 1840.27 130.854C1840.27 138.195 1840.82 145.405 1841.86 152.459C1816.03 138.686 1786.54 130.854 1755.21 130.854C1665.73 130.854 1591.17 194.555 1574.43 279.032C1547.72 252.189 1510.72 235.563 1469.83 235.563C1421.14 235.563 1377.97 259.146 1351.11 295.486C1332.58 171.056 1225.19 75.5945 1095.47 75.5945C973.135 75.5945 870.716 160.517 843.898 274.549C801.755 218.921 734.96 182.961 659.736 182.961C555.41 182.961 467.289 252.112 438.7 347.021C412.239 307.54 367.194 281.537 316.059 281.537C292.055 281.537 269.41 287.301 249.379 297.465C221.612 201.252 132.873 130.85 27.6175 130.85C18.2645 130.85 9.0612 131.472 0 132.549V465.648H1920V465.652Z" fill="white"/>
</svg>
